<svg xmlns="http://www.w3.org/2000/svg" width="273.9097pt" height="75pt" viewBox="0 0 273.90971 75"><path fill="#009090" d="M53.994 44.44c-.19-1.14-.5-2.248-.96-3.272-1.448-3.127-3.471-5.76-6.494-7.517-4.704-2.743-10.388-2.728-15.04.1a13.116 13.116 0 0 0-4.949 5.299 14.7 14.7 0 0 0-.941 2.323c-1.225 3.894-1.177 9.137 1.03 12.69.717 1.164 1.762 2.157 3.038 2.647 1.27.495 2.79.44 3.93-.296 1.484-.967 1.743-2.78 1.471-4.407-.348-2.076-.617-4.108.153-6.138.238-.645.586-1.274 1.087-1.742.298-.296.66-.532 1.036-.722.801-.388 1.717-.568 2.596-.416 1.54.246 2.8 1.438 3.488 2.844.68 1.397.868 2.984.941 4.545.324 6.796-1.291 13.826-3.03 20.352a50.596 50.596 0 0 1-.555 2.001c-.142.517-.406 1.177-.08 1.676.152.214.365.367.605.465 1.009.403 1.836-.214 2.499-.888 3.986-4.015 6.545-9.171 8.283-14.495.65-1.978 1.214-3.995 1.583-6.048.519-2.816.815-6.032.31-9.001M82.498 13.065c0-1.03-.903-1.701-1.872-1.665-.98.041-1.899.544-2.803.89-17.505 6.656-37.263 7.923-55.716 5.26-3.155-.453-6.355-1.096-9.523-1.587-1.989-.315-3.954-.762-5.958-.917-1.704-.121-3.835-.184-5.215 1.006C-.414 17.618-.282 20.6.752 22.576c1.24 2.354 3.41 4.133 5.67 5.47 2.193 1.313 4.817 2.708 7.427 2.54a314.4 314.4 0 0 0 21.101-2.048c11.955-1.544 24.487-3.004 35.716-7.651 3.669-1.514 7.29-3.403 10.44-5.854.567-.428 1.392-1.14 1.392-1.968" style="stroke-width:2.1595"/><path fill="#e50044" d="M32.277 7.06a6.886 6.886 0 1 0 13.77 0c0-.566-.135-1.136-.37-1.653-.584-1.248-1.255-1.859-1.19-3.36C44.575.03 41.982 0 40.587 0c-1.525 0-3.132.21-4.512.898a7.026 7.026 0 0 0-2.71 2.434 6.847 6.847 0 0 0-1.088 3.572z" style="stroke-width:2.1595"/><path d="M97.199 23.282v-5.278h7.776v5.278h10.39v5h-5.445c2.445 2.945 4 7.11 4.056 11.944-.056 9.39-5.334 16.388-12.888 16.388-7.778.056-12.944-6.999-12.944-16.388 0-4.833 1.555-8.999 4-11.944h-5.112v-5zm3.889 5.112c-3.056 0-5.5 4.667-5.444 11.832-.056 6.832 2.332 11.389 5.388 11.389 3.112 0 5.444-4.444 5.444-11.39 0-7.5-2.222-11.831-5.388-11.831m26.776 9.888V68.28h-7.5V18.004h7.5v15.277h7.221v5.001zM147.255 48.837h12.611c3.389 0 5.943.166 9.11-1.501v-29.33h7.499v15.276h7.224v4.999h-7.224v30h-7.5V52.337c-2.61 1.166-6.11 1.499-9.277 1.499h-16.609c-3.278 0-5.779-3.166-5.779-6.889v-26.72h7.5v26.554c0 1.278.834 2.056 2.445 2.056M184.745 41.06h44.997v4.999h-12.778c2.445 2.5 4.002 5.945 4.002 9.888-.056 8.444-6.5 14.056-13.721 14.056-7.5 0-13.778-5.833-13.778-14.056 0-3.887 1.555-7.388 3.943-9.888h-12.665zm39.497-17.5h-12.888c1.166 5.277 6.723 8.388 13.389 8.721v5.168c-8.167 0-15.555-3.5-17.72-6.945-2.223 3.444-9.5 6.945-17.28 6.945V32.28c6.445-.333 12.111-3.388 13.334-8.72h-12.722v-5.002h33.887zm-16.997 23.222c-3.002 0-6.278 3.555-6.278 9.165-.056 5.667 3.056 9.055 6.221 9.055 3.056 0 6.278-3.388 6.278-9.055 0-5.777-3.112-9.165-6.221-9.165M250.967 36.56c.667-2.167 1-4.611 1-6.946v-5.498H234.19v-5.001h25.277v10.39c0 2.332-.501 4.942-1.112 7.054h5.278v5h-12.888v8.666h-7.554v-8.666h-11.223v-5zm-.11 27.276h23.053v5h-27.443c-3.056 0-5.332-3.11-5.332-6.667V52.17h7.5v9.444c0 1.332.887 2.222 2.222 2.222m23.053-45.831v36.943h-7.498v-6.222h-10.834v-5h10.834V18.006Z" style="stroke-width:2.1595"/></svg>