<svg xmlns="http://www.w3.org/2000/svg" width="251" height="62" fill="none" preserveAspectRatio="none">
    <g clip-path="url(#clip0_284_754)">
    <path
        d="M49.4778 36.7371C49.3037 35.7947 49.0196 34.8787 48.5981 34.0322C47.2712 31.4472 45.4174 29.2706 42.6473 27.8182C38.3367 25.5506 33.1281 25.563 28.8652 27.9008C26.9273 28.9475 25.3555 30.4657 24.3301 32.2813C23.9826 32.8981 23.6941 33.5406 23.4678 34.2017C22.3453 37.4207 22.3893 41.7549 24.4117 44.6921C25.0687 45.6543 26.0263 46.4752 27.1956 46.8803C28.3594 47.2895 29.7522 47.244 30.7969 46.6356C32.1568 45.8362 32.3941 44.3374 32.1449 42.9924C31.826 41.2763 31.5795 39.5965 32.2851 37.9184C32.5032 37.3852 32.8221 36.8652 33.2811 36.4783C33.5542 36.2336 33.8859 36.0385 34.2305 35.8815C34.9645 35.5607 35.8039 35.4119 36.6094 35.5376C38.0206 35.7409 39.1752 36.7263 39.8056 37.8886C40.4288 39.0435 40.601 40.3554 40.6679 41.6458C40.9648 47.2638 39.4849 53.0753 37.8914 58.4701C37.7344 59.0246 37.5648 59.5761 37.3828 60.1243C37.2527 60.5517 37.0107 61.0973 37.3095 61.5098C37.4488 61.6867 37.6439 61.8132 37.8639 61.8942C38.7885 62.2273 39.5463 61.7173 40.1539 61.1601C43.8065 57.841 46.1514 53.5787 47.7441 49.1776C48.3397 47.5424 48.8565 45.875 49.1947 44.1779C49.6703 41.85 49.9406 39.1914 49.4778 36.7371ZM75.5978 10.8004C75.5978 9.94893 74.7703 9.39423 73.8823 9.42399C72.9843 9.45789 72.1422 9.8737 71.3138 10.1597C55.2729 15.662 37.1674 16.7094 20.2578 14.508C17.3667 14.1335 14.4344 13.602 11.5313 13.1961C9.70869 12.9357 7.90804 12.5662 6.07166 12.438C4.51018 12.338 2.55741 12.2859 1.29284 13.2696C-0.379522 14.5642 -0.258562 17.0293 0.688955 18.6628C1.82524 20.6088 3.81374 22.0794 5.88472 23.1847C7.8943 24.2701 10.2988 25.4233 12.6905 25.2844C19.1552 24.9163 25.6042 24.3517 32.0267 23.5914C42.9817 22.315 54.4656 21.1081 64.7554 17.2666C68.1175 16.015 71.4356 14.4534 74.3222 12.4273C74.8418 12.0735 75.5978 11.4849 75.5978 10.8004Z"
        fill="#009090"></path>
    <path
        d="M29.5776 5.83627C29.5633 6.59186 29.7159 7.34246 30.0266 8.04428C30.3372 8.74609 30.7997 9.38509 31.387 9.92398C31.9742 10.4629 32.6746 10.8909 33.4471 11.1831C34.2197 11.4752 35.049 11.6257 35.8867 11.6257C36.7244 11.6257 37.5537 11.4752 38.3263 11.1831C39.0988 10.8909 39.7992 10.4629 40.3865 9.92398C40.9737 9.38509 41.4362 8.74609 41.7468 8.04428C42.0575 7.34246 42.2101 6.59186 42.1959 5.83627C42.1959 5.36837 42.0721 4.89717 41.8568 4.46979C41.3216 3.43811 40.7068 2.93301 40.7663 1.69219C40.847 0.0248 38.4709 0 37.1925 0C35.7951 0 34.3225 0.1736 33.0579 0.742347C32.0485 1.20445 31.1919 1.89847 30.5746 2.75445C29.9454 3.6364 29.6002 4.6587 29.5776 5.70731V5.83627Z"
        fill="#E50044"></path>
    <path
        d="M89.0691 19.2464V14.8833H96.1947V19.2464H105.716V23.3798H100.726C102.967 25.8143 104.392 29.2574 104.443 33.2535C104.392 41.0159 99.555 46.8009 92.6328 46.8009C85.5054 46.8472 80.7714 41.0151 80.7714 33.2535C80.7714 29.2582 82.1964 25.8143 84.4369 23.3798H79.7524V19.2464H89.0691ZM92.6328 23.4724C89.8324 23.4724 87.5928 27.3304 87.6441 33.2535C87.5928 38.9013 89.7811 42.6684 92.5815 42.6684C95.4332 42.6684 97.5702 38.9947 97.5702 33.2527C97.5702 27.0527 95.534 23.4724 92.6328 23.4724ZM117.169 31.6464V56.4448H110.297V14.8833H117.169V27.5123H123.786V31.6464H117.169ZM134.938 40.3719H146.495C149.6 40.3719 151.941 40.5091 154.843 39.1311V14.885H161.714V27.5131H168.334V31.6456H161.714V56.4456H154.842V43.2652C152.45 44.2291 149.243 44.5044 146.341 44.5044H131.121C128.117 44.5044 125.825 41.8872 125.825 38.8095V16.721H132.698V38.6723C132.698 39.7288 133.462 40.3719 134.938 40.3719ZM169.293 33.9429H210.526V38.0754H198.817C201.057 40.1421 202.484 42.99 202.484 46.2495C202.433 53.2299 196.528 57.8691 189.911 57.8691C183.038 57.8691 177.285 53.0472 177.285 46.2495C177.285 43.0363 178.71 40.1421 180.898 38.0754H169.293V33.9429ZM205.486 19.4763H193.676C194.745 23.8386 199.837 26.4103 205.945 26.6856V30.9578C198.461 30.9578 191.691 28.0645 189.707 25.2166C187.67 28.0637 181.002 30.9578 173.873 30.9578V26.6848C179.779 26.4095 184.971 23.884 186.091 19.4763H174.434V15.3413H205.486V19.4763ZM189.911 38.6731C187.16 38.6731 184.158 41.6119 184.158 46.2495C184.107 50.9342 186.958 53.735 189.859 53.735C192.659 53.735 195.612 50.9342 195.612 46.2495C195.612 41.4739 192.76 38.6731 189.911 38.6731ZM229.976 30.2229C230.587 28.4315 230.892 26.4112 230.892 24.4809V19.9359H214.602V15.8017H237.765V24.3908C237.765 26.3186 237.306 28.4762 236.746 30.2221H241.583V34.3554H229.773V41.5193H222.85V34.3554H212.566V30.2221L229.976 30.2229ZM229.875 52.7711H251V56.9044H225.852C223.052 56.9044 220.966 54.3335 220.966 51.393V43.1272H227.839V50.9342C227.839 52.0354 228.652 52.7711 229.875 52.7711ZM251 14.8841V45.4237H244.129V40.2802H234.201V36.1468H244.129V14.885L251 14.8841Z"
        fill="black"></path>
    </g>
    
    <defs>
        <clipPath id="clip0_284_754">
            <rect width="251" height="62" fill="white"></rect>
        </clipPath>
    </defs>
</svg>
